<svg xmlns="http://www.w3.org/2000/svg" width="250" height="250" viewBox="0 0 250 250">
<!-- SVG created with Arrow, by QuiverAI (https://quiver.ai) -->
  <path d="m124.7 33.5h0.32c2.73 0 7.84 9.48 8.97 15.14 1.01 5.18 0.64 8.97 0.83 16.44l0.11 12.85c3.92 2.06 10.66 4.7 16.01 5.84l0.03-2.83c0-0.67 0.35-1.15 1.2-1.16h6.95c0.72 0 1.19 0.43 1.18 1.26l0.31 8.85 50 26.02v3.41c-4.21-0.53-21.27-4.99-36.64-8.89l-0.93 3.27-0.65-0.34-0.66-4.46-9.34-2.31-0.84 3.47-0.85-0.34-0.48-3.6-6.86-1.34-0.66 4.94h-1.03l-1.59-4.56c-0.29-0.89-1.34-2.01-3.08-2.36-2.09-0.44-10.4-0.44-14.22 0-0.79 0.09-0.72 1.02-0.91 2.66l-2.47 20.78c-0.23 0.82-0.15 1.09 0.19 1.2-0.9 3.2-0.86 11.37-4.57 12.07-3.61-1.03-3.96-6.8-4.43-11.36l0.28-0.23c-1.18-6.59-2.08-15.24-2.13-25.11-3.61-0.73-11.94-0.68-13.69-0.28-2.66 0.16-3.98 1.19-4.42 2.78l-1.99 4.2-1.28-0.33-0.33-4.03-6.86 1.76-0.65 3.15-0.93-0.17-0.24-2.63-9.03 1.98-1.59 4.03-1.17-0.44v-2.41c-11.29 2.5-26.54 7.24-37.62 8.57v-2.52c0-1.16 3.22-2.73 6.83-4.5 11.3-5.41 21.43-11.08 36.57-18.15l7.86-4.03 0.57-9.02c0.03-0.72 0.5-1.06 1.34-1.05l6-0.03c0.78 0.01 1.29 0.32 1.35 1.24l0.65 3.04c5.43-1.76 10.91-3.69 15.38-6.32l0.2-20.3c0.01-7.18 2.04-14.26 6.75-21.97 0.75-1.26 1.15-1.88 2.26-1.88z" fill="#FFFFFF"/>
  
  <path d="m116.5 119.6c1.46 0 3.61 12.96 3.51 13.95-10.6 5.27-24.17 10.7-39.71 12.72l-0.33-0.44c14.84-5.92 24.9-12.54 36.26-26.09" fill="#FFFFFF"/>
  <path d="m133.8 119.4c-1.46 0-3.96 11.49-3.86 13.58 2.23 3.07 19.3 9.92 40.35 13.12l-0.24-0.66c-12.54-4.16-25.99-12.67-35.45-25.55-0.19-0.31-0.52-0.49-0.8-0.49z" fill="#FFFFFF"/>
  <path d="m227.7 123-0.42-0.11c-10.26 17.11-27.09 25.1-53.84 31.94-14.94 4.16-24.41 7.58-28.37 9.03-8.34 3.08-13.08 6.1-20.26 11.61-4.09-3.41-6.35-6.64-13.93-9.24-7.76-2.69-18.71-5.63-28.6-7.92-25.51-5.88-45.53-13.49-59.56-35.89l-0.79 0.25c5.73 21.44 26.3 33.66 48.9 43.22 17.17 7.81 37.3 12.73 45.25 18.93 2.83 2.31 5.79 4.49 8.61 7.85h0.43c7.29-10.95 26.77-16.43 39.79-21.33 21.8-8.26 53.61-19.67 62.79-48.34z" fill="#0071CE"/>
  <path d="m212.9 152.8c-12.4 12-20.6 15.49-48.07 26.1-14.8 6.07-29.71 10.71-39.85 23.41l-0.2 0.63-0.15-0.45c-8.92-12.56-27.44-17.52-42.24-23.59-18.31-6.52-30.88-11.17-45.15-26.1l-0.4 0.17c10.3 17.29 33.19 29.32 52.05 39.43 13.27 7.25 31.19 15.53 35.74 24.08h0.65c6.09-10.55 23.72-18.6 42.01-28.12 15.92-7.79 35.44-19.27 45.72-35.42l-0.11-0.14z" fill="#00999F"/>
</svg>